<svg width="115" height="108" viewBox="0 0 115 108" fill="none" xmlns="http://www.w3.org/2000/svg">
<g clip-path="url(#clip0_881_7743)">
<path fill-rule="evenodd" clip-rule="evenodd" d="M57.1178 0.0033162C89.1374 -0.00666961 89.4521 -0.00666946 90.9413 0.193047C91.7593 0.312877 92.955 0.522578 93.5842 0.662379C94.224 0.802181 95.3463 1.12173 96.1014 1.36139C96.8566 1.60105 98.178 2.13029 99.0379 2.52972C99.9084 2.93915 101.136 3.58821 101.765 3.98765C102.405 4.38708 103.37 5.05613 103.915 5.46555C104.46 5.88496 105.404 6.7038 106.012 7.28297C106.621 7.86214 107.439 8.71094 107.827 9.18027C108.225 9.64961 108.844 10.4585 109.211 10.9777C109.568 11.497 110.113 12.3358 110.396 12.8251C110.69 13.3144 111.162 14.2431 111.445 14.8722C111.728 15.5013 112.127 16.5098 112.337 17.119C112.536 17.7281 112.83 18.7366 112.976 19.3658C113.123 19.9949 113.323 21.0733 113.427 21.7624C113.606 22.9407 113.616 24.7781 113.616 53.667C113.616 82.5559 113.606 84.3934 113.427 85.5716C113.323 86.2607 113.123 87.3392 112.976 87.9683C112.83 88.5973 112.504 89.7058 112.253 90.4148C112.012 91.1238 111.582 92.1823 111.309 92.7615C111.036 93.3406 110.533 94.2792 110.187 94.8585C109.841 95.4377 109.337 96.1965 109.075 96.5561C108.813 96.9155 108.246 97.6345 107.806 98.1538C107.365 98.6731 106.537 99.5517 105.96 100.101C105.383 100.65 104.513 101.409 104.02 101.779C103.527 102.158 102.562 102.827 101.87 103.267C101.177 103.706 99.9084 104.395 99.0379 104.794C98.178 105.194 96.9194 105.703 96.2587 105.923C95.5979 106.142 94.4653 106.462 93.7416 106.622C93.018 106.791 91.8852 107.011 91.2245 107.111C90.0813 107.281 88.2773 107.291 57.2437 107.291C26.2413 107.291 24.4059 107.281 23.2627 107.111C22.602 107.011 21.5428 106.812 20.903 106.672C20.2737 106.532 19.1411 106.212 18.3859 105.973C17.6412 105.733 16.2673 105.184 15.3444 104.744C14.4215 104.315 13.1839 103.656 12.5966 103.277C12.0092 102.907 11.1387 102.308 10.6563 101.948C10.1843 101.589 9.24042 100.78 8.57968 100.151C7.90846 99.5218 7.03796 98.6231 6.64991 98.1538C6.25137 97.6844 5.59063 96.8057 5.17111 96.2065C4.7411 95.6074 4.14329 94.6388 3.81817 94.0596C3.50353 93.4805 3.02108 92.4919 2.75888 91.8627C2.4967 91.2336 2.11912 90.1951 1.91985 89.5659C1.73107 88.9369 1.50034 88.0581 1.40595 87.6187C1.31155 87.1794 1.15424 86.3207 1.05984 85.7214C0.892037 84.7129 0.871061 82.2464 0.839597 54.6656C0.818621 33.306 0.839597 24.2788 0.9235 23.2104C0.986428 22.3914 1.13326 21.1733 1.25911 20.5141C1.37448 19.8551 1.62619 18.7766 1.81497 18.1176C2.00376 17.4585 2.38133 16.3801 2.65401 15.7209C2.9267 15.0619 3.43012 14.0034 3.77621 13.3743C4.12232 12.7452 4.69915 11.7966 5.04525 11.2773C5.40184 10.758 6.07307 9.87928 6.52405 9.33006C6.98552 8.78083 7.87699 7.83219 8.51675 7.23304C9.15651 6.62391 10.0795 5.82504 10.5724 5.44559C11.0653 5.07611 11.9568 4.45699 12.5651 4.07753C13.1734 3.68808 14.2536 3.08893 14.9773 2.73943C15.7009 2.38992 16.7812 1.92059 17.3896 1.7009C17.9978 1.47122 18.8893 1.18164 19.3822 1.04184C19.8752 0.912024 20.7037 0.702323 21.2176 0.582493C21.7421 0.47265 22.7488 0.292905 23.4725 0.193047C24.7101 0.0232879 26.619 0.013302 57.1178 0.0033162ZM23.6823 9.24018C23.1893 9.33006 22.3399 9.52978 21.7944 9.69952C21.2491 9.86928 20.3471 10.1988 19.8018 10.4485C19.2564 10.6881 18.2915 11.2174 17.6517 11.6168C17.0224 12.0262 16.0261 12.7752 15.4598 13.2844C14.8934 13.8037 14.0544 14.6925 13.5929 15.2716C13.1419 15.8508 12.4707 16.8794 12.1036 17.5683C11.7366 18.2574 11.2751 19.3058 11.0653 19.915C10.866 20.5242 10.6143 21.4827 10.499 22.062C10.3207 23.0606 10.3102 24.4486 10.3102 53.667C10.3102 82.9354 10.3207 84.2635 10.499 85.272C10.6143 85.8513 10.887 86.8598 11.1073 87.5189C11.338 88.1779 11.81 89.2364 12.1561 89.8656C12.4917 90.4947 13.079 91.3934 13.4356 91.8627C13.8027 92.3321 14.4215 93.041 14.82 93.4504C15.229 93.86 15.8898 94.4491 16.2884 94.7587C16.6973 95.0681 17.4001 95.5674 17.8615 95.8471C18.3229 96.1366 19.1306 96.576 19.6445 96.8157C20.1689 97.0554 21.0814 97.4048 21.6896 97.5846C22.2979 97.7744 23.2208 98.0139 23.7347 98.1139C24.6471 98.2936 25.7799 98.3036 57.1387 98.3036C88.4032 98.3036 89.6408 98.2936 90.6477 98.1139C91.2245 98.0139 92.1895 97.7744 92.7977 97.5846C93.406 97.3949 94.3288 97.0454 94.8428 96.8057C95.3672 96.5661 96.2168 96.0967 96.7307 95.7772C97.2551 95.4476 98.0521 94.8685 98.5031 94.4991C98.9645 94.1196 99.6673 93.4504 100.066 93.0111C100.475 92.5718 101.094 91.7829 101.461 91.2635C101.817 90.7443 102.331 89.8855 102.593 89.3663C102.845 88.8471 103.191 88.0581 103.338 87.6187C103.495 87.1794 103.716 86.4305 103.821 85.9511C103.925 85.4618 104.072 84.5432 104.125 83.9041C104.198 83.1052 104.229 73.0196 104.198 52.8183C104.167 25.0676 104.156 22.8508 103.988 22.062C103.883 21.5926 103.695 20.8338 103.558 20.3644C103.422 19.8951 103.107 19.0862 102.877 18.567C102.635 18.0477 102.226 17.2589 101.954 16.8194C101.691 16.3801 101.209 15.681 100.894 15.2716C100.58 14.8622 99.8455 14.0733 99.2582 13.5241C98.6709 12.9749 97.748 12.2259 97.2026 11.8565C96.6573 11.487 95.6923 10.9378 95.0526 10.6382C94.4233 10.3386 93.4794 9.94917 92.955 9.77941C92.4411 9.60965 91.56 9.37 91.0147 9.25017L90.0183 9.03048C39.7918 9.01051 25.0562 9.03048 24.8884 9.05046C24.7207 9.07042 24.1752 9.1603 23.6823 9.24018ZM74.6536 21.2631L75.4716 21.5028C75.9121 21.6425 76.5834 21.9421 76.9505 22.1818C77.328 22.4215 77.8105 22.8109 78.0306 23.0606C78.251 23.3102 78.597 23.8194 78.7963 24.2089C78.9851 24.5984 79.2054 25.1975 79.2788 25.5569C79.3522 25.9165 79.3836 26.5156 79.3416 26.905C79.3102 27.2945 79.2054 27.8537 79.09 28.1532C78.9851 28.4628 78.7334 28.9622 78.5342 29.2816C78.2615 29.7011 73.416 34.3545 60.5998 46.5072C50.9404 55.6742 40.788 65.2805 38.0508 67.8569C33.5933 72.0609 32.9955 72.5901 32.3873 72.8698C32.0096 73.0395 31.4748 73.2292 31.1811 73.2891C30.8979 73.3491 30.2792 73.399 29.8178 73.399C29.3562 73.399 28.7166 73.3191 28.4019 73.2292C28.0871 73.1393 27.5943 72.9495 27.3006 72.8098C27.0174 72.68 26.4406 72.2406 26.0315 71.8512C25.5492 71.3919 25.1716 70.9126 24.9617 70.4932C24.773 70.1336 24.5737 69.5945 24.5109 69.2947C24.4478 68.9952 24.4164 68.3462 24.4375 67.8469C24.4689 67.2677 24.5737 66.7285 24.7207 66.349C24.8464 66.0194 25.0876 65.5502 25.2555 65.3004C25.4233 65.0508 28.3809 62.1749 31.8314 58.9096C35.282 55.6342 42.8856 48.4344 48.7275 42.9023C55.7543 36.2517 59.3413 32.7768 59.3413 32.6469C59.3413 32.5371 59.2888 32.3473 59.2363 32.2275C59.1734 32.0977 59.0161 31.9379 58.8693 31.8779C58.6595 31.7781 56.3312 31.7482 48.2555 31.7482C39.3618 31.7482 37.8095 31.7281 37.2956 31.5984C36.96 31.5185 36.3937 31.3089 36.0371 31.139C35.6386 30.9493 35.1036 30.5598 34.6842 30.1604C34.2645 29.7611 33.8556 29.2517 33.6563 28.8823C33.478 28.5327 33.2578 27.9536 33.1633 27.584C33.048 27.1148 33.0166 26.6755 33.0585 26.1561C33.0899 25.7467 33.2053 25.1576 33.3101 24.858C33.4151 24.5584 33.6458 24.089 33.8137 23.8095C33.9815 23.5399 34.3799 23.0606 34.6945 22.7609C35.0093 22.4613 35.5547 22.072 35.9007 21.8923C36.2468 21.7224 36.7921 21.5028 37.1069 21.4229C37.6103 21.293 40.1273 21.2731 74.6536 21.2631ZM84.9318 33.915C85.2464 33.9351 85.8128 34.0449 86.1903 34.1447C86.5679 34.2447 87.1552 34.5043 87.5013 34.724C87.8473 34.9336 88.3509 35.3331 88.613 35.6028C88.8752 35.8723 89.2108 36.2917 89.3576 36.5414C89.5149 36.791 89.7353 37.3303 89.8715 37.7397C90.0603 38.3687 90.0919 38.6484 90.0499 39.4373C90.0079 40.0464 89.9135 40.5856 89.7772 40.9351C89.6514 41.2347 89.3682 41.7539 89.1478 42.0835C88.8648 42.4929 83.4739 47.6456 71.9896 58.5102C62.7813 67.2178 55.2195 74.4275 55.1881 74.5373C55.1461 74.6471 55.1565 74.8569 55.1881 75.0167C55.23 75.2065 55.3663 75.3362 55.618 75.436C55.9327 75.5659 57.3694 75.5858 66.3472 75.5858C75.587 75.5858 76.7616 75.6058 77.2755 75.7456C77.5901 75.8355 78.1146 76.0353 78.4292 76.1851C78.7438 76.3349 79.2577 76.6843 79.5724 76.9439C79.887 77.2135 80.3275 77.7028 80.5478 78.0324C80.768 78.3619 81.0407 78.9012 81.156 79.2307C81.2714 79.5602 81.3869 80.0794 81.4287 80.379C81.4707 80.6886 81.4392 81.2578 81.3658 81.6772C81.2819 82.1465 81.0826 82.7058 80.831 83.1751C80.5687 83.6744 80.2121 84.1338 79.7716 84.553C79.4047 84.8926 78.8277 85.312 78.4817 85.4718C78.1356 85.6416 77.5901 85.8412 77.2755 85.9211C76.7826 86.051 74.1292 86.0709 58.3449 86.0709C42.2249 86.0709 39.9175 86.051 39.3618 85.9211C39.0156 85.8314 38.4283 85.6216 38.0508 85.4519C37.6417 85.2622 37.1069 84.8827 36.7292 84.5231C36.3518 84.1737 35.9532 83.6644 35.7539 83.3049C35.5756 82.9554 35.3554 82.3962 35.2609 82.0567C35.135 81.6073 35.1036 81.1779 35.1456 80.5288C35.177 79.9397 35.2715 79.4204 35.4288 79.031C35.565 78.7015 35.8063 78.2321 35.9636 77.9825C36.1209 77.7329 46.0426 68.2463 58.6804 56.2733C71.0143 44.57 81.3134 34.8737 81.5756 34.724C81.8378 34.5642 82.3097 34.3445 82.6244 34.2347C82.939 34.1248 83.4634 33.9949 83.7781 33.9451C84.0927 33.9052 84.6171 33.8851 84.9318 33.915Z" fill="#252424"/>
</g>
<defs>
<clipPath id="clip0_881_7743">
<rect width="114.168" height="107.291" fill="white" transform="translate(0.832031)"/>
</clipPath>
</defs>
</svg>
